<svg height = "20px" width= "20px" xmlns="http://www.w3.org/2000/svg" viewBox="0 0 512 512">
  <defs/>
  <path xmlns="http://www.w3.org/2000/svg" fill="#1DB954" d="M437.019 74.98C388.667 26.628 324.38 0 256 0 187.619 0 123.331 26.629 74.98 74.98 26.628 123.332 0 187.62 0 256s26.628 132.668 74.98 181.02C123.331 485.371 187.619 512 256 512c68.38 0 132.667-26.628 181.019-74.98C485.371 388.667 512 324.38 512 256s-26.629-132.667-74.981-181.02zM256 482C131.383 482 30 380.617 30 256S131.383 30 256 30s226 101.383 226 226-101.383 226-226 226z" data-original="#000000"/>
  <path xmlns="http://www.w3.org/2000/svg" fill="#1DB954" d="M400.886 243.52l-192.8-128.535c-4.603-3.068-10.52-3.355-15.398-.744-4.877 2.61-7.922 7.693-7.922 13.225v257.066c0 5.532 3.045 10.615 7.922 13.225 2.218 1.187 4.65 1.775 7.077 1.775 2.91 0 5.812-.846 8.321-2.519l192.8-128.532c4.173-2.782 6.68-7.466 6.68-12.481-.001-5.014-2.507-9.698-6.68-12.48zM214.765 356.506V155.495l150.758 100.506-150.758 100.505z" data-original="#000000"/>
</svg>
